<?xml version="1.0" encoding="utf-8"?>
<!-- Generator: Adobe Illustrator 24.1.1, SVG Export Plug-In . SVG Version: 6.00 Build 0)  -->
<svg version="1.1" id="Слой_1" xmlns="http://www.w3.org/2000/svg" x="0px" y="0px"
	 viewBox="0 0 100 100" class="social">
		<path d="M93,11c1,0,2,0,3,0c0,2.67,0,5.33,0,8c-0.94,0-1.89,0-3.07,0c0.11,1.24,0.19,2.14,0.26,3c1.16,0,1.98,0,2.8,0
			c0,1.28,0,2.57,0,3.79c-1.24,0.2-2.14,0.35-3.2,0.52c0,1.03,0,1.81,0,2.6c-1.31,0.07-2.43,0.13-3.87,0.21c0,7.34,0,14.56,0,21.74
			c-1.11,0.12-1.9,0.21-3.02,0.33c0,2.28,0,4.53,0,6.73c-1.46,0.07-2.58,0.12-4.04,0.19c0,2.4,0,4.65,0,7.03c-1.47,0-2.58,0-3.7,0
			c-0.15,1.41-0.29,2.65-0.44,4.04c-1.05,0-1.82,0-2.76,0c0,2.29,0,4.41,0,6.87c-1.38,0-2.62,0-3.83,0
			c-0.12,1.14-0.21,1.92-0.33,3.04c-2.28,0-4.53,0-6.92,0c0,1.46,0,2.58,0,3.68c-1.08,0.2-1.99,0.36-3.05,0.55c0,1.28,0,2.4,0,3.59
			c-3.72,0.29-7.32-0.17-10.85,0.26c0,1.51,0,2.67,0,3.83c-13,0-26,0-39,0c0-1.26,0-2.53,0-4c-2.85,0-5.43,0-8,0c0-1.33,0-2.67,0-4
			c3.62,0,7.24,0,10.81,0c0.17-1.58,0.3-2.81,0.45-4.2c3.76,0,7.2,0,10.61,0c0.11-0.98,0.2-1.77,0.29-2.59
			c0.99-0.16,1.91-0.31,2.69-0.44c0-1.35,0-2.46,0-3.92c-3.38,0-6.63,0-10.02,0c0-1.13,0-1.92,0-2.68
			c-1.41-0.15-2.64-0.28-4.03-0.42c0-2.44,0-4.56,0-6.63c-0.99-0.1-1.78-0.19-2.9-0.3c0-2.64,0-5.22,0-7.94c-1.47,0-2.59,0-4.05,0
			c0-2.41,0-4.65,0-6.87C5.33,47,4.17,47,3,47c0-2.33,0-4.67,0-7c2.61,0,5.21,0,8.06,0c-0.09-1.23-0.16-2.13-0.24-3.17
			c-1.42,0-2.54,0-3.64,0C7.02,35.43,6.89,34.2,6.75,33c-1.44,0-2.6,0-3.75,0c0-4.67,0-9.33,0-14c1.29,0,2.57,0,3.81,0
			c0.16-1.58,0.29-2.81,0.39-3.8c1.48,0,2.59,0,3.7,0c0.08,1.32,0.14,2.45,0.2,3.57c1.06,0.18,1.98,0.34,3.04,0.52
			c0,0.96,0,1.74,0,2.52c1.41,0.16,2.65,0.3,4.05,0.46c0,1.37,0,2.49,0,3.78c2.3,0,4.43,0,6.58,0c0.17,1.07,0.32,1.99,0.48,3.06
			c2.3,0,4.42,0,6.6,0c0.13,1.41,0.24,2.66,0.37,4.05c4.72,0,9.17,0,13.6,0c0.16,1.41,0.3,2.64,0.41,3.64c1.45,0,2.56,0,3.84,0
			c0-5.98,0-11.76,0-17.57c1.08-0.18,2-0.32,3.05-0.5c0-1.29,0-2.41,0-3.57c1.41-0.14,2.66-0.26,3.88-0.38c0-1.44,0-2.61,0-3.77
			c8.33,0,16.67,0,25,0c0,1.28,0,2.57,0,4c2.14,0,3.95,0.02,5.75-0.01c1.76-0.02,3.52-0.09,5.25-0.14C93,13.32,93,12.16,93,11z"/>
		<ellipse cx="98" cy="20.5" rx="2.83" ry="2.12"/>
		<path class="st0" d="M15,87c-2.94-2.65-6.55-1.93-10-2"/>
		<path class="st0" d="M94.5,12.5c-0.07,1.42-0.14,2.84-0.18,3.72c-1.92,1.11-3.37,1.94-4.82,2.78"/>
</svg>
